<?xml version="1.0" ?><svg viewBox="0 0 64 64" xmlns="http://www.w3.org/2000/svg"><path d="M21.956,48.12,21.18,52H20a1,1,0,0,0-1,1v3a1,1,0,0,0,0,2v3a1,1,0,0,0,1,1H44a1,1,0,0,0,1-1V58a1,1,0,0,0,0-2V53a1,1,0,0,0-1-1H42.82l-.776-3.88A19.007,19.007,0,0,0,50.064,26.1a1,1,0,1,0-1.9.621,17.027,17.027,0,0,1-7.829,20.1.973.973,0,0,0-.208.18H33V43.916A6.95,6.95,0,0,0,39,37V32.708A1,1,0,0,0,37.293,32l-2.648,2.648a.378.378,0,0,1-.605-.1.382.382,0,0,1-.04-.169V28.708a1,1,0,0,0-1.581-.813L28.1,30.981A7.412,7.412,0,0,0,25,37a7.006,7.006,0,0,0,.4,2.339,1,1,0,0,0,1.885-.668A5,5,0,0,1,27,37a5.41,5.41,0,0,1,2.26-4.392L32,30.651v3.732a2.378,2.378,0,0,0,4.059,1.681L37,35.123V37a4.961,4.961,0,0,1-4,4.891V39a1,1,0,0,0-2,0v2.891a4.932,4.932,0,0,1-1.235-.418,4.992,4.992,0,0,1-.824-.518,1,1,0,0,0-1.224,1.582A6.851,6.851,0,0,0,31,43.916V47H23.873a.973.973,0,0,0-.208-.18A17,17,0,0,1,22.36,18H41.63a17.016,17.016,0,0,1,4.2,4.114,1,1,0,0,0,1.627-1.164A19,19,0,0,0,43,16.527V12a1,1,0,0,0-.445-.832l-3-2A1.006,1.006,0,0,0,39,9H37V7A5,5,0,0,0,27,7V9H25a1.006,1.006,0,0,0-.555.168l-3,2A1,1,0,0,0,21,12v4.517a18.984,18.984,0,0,0,.956,31.6ZM40.181,49l.6,3H31a1,1,0,0,0,0,2H43v2H31a1,1,0,0,0,0,2H43v2H21V58h2a1,1,0,0,0,0-2H21V54h5a1,1,0,0,0,0-2H23.22l.6-3ZM29,7a3,3,0,0,1,6,0V9H29Zm-6,5.535L25.3,11H38.7L41,12.535V16H23Z"/></svg>